<svg id="Layer_1" data-name="Layer 1" xmlns="http://www.w3.org/2000/svg" xmlns:xlink="http://www.w3.org/1999/xlink" viewBox="0 0 200 60"><defs><clipPath id="clip-path"><rect x="0.44" y="0.94" width="198.38" height="58.12" style="fill:none"/></clipPath></defs><rect x="19.76" y="0.94" width="19.32" height="19.32" style="fill:#de1f26"/><rect x="0.44" y="20.26" width="19.32" height="38.33" style="fill:#de1f26"/><rect x="42.16" y="29.46" width="3.76" height="29.13" style="fill:#fff"/><g style="clip-path:url(#clip-path)"><path d="M53.66,43.33c0-2.16,0-3.93-.18-5.66h3.37l.22,3.46h.09a7.67,7.67,0,0,1,6.91-3.94c2.9,0,7.39,1.73,7.39,8.91V58.59h-3.8V46.53c0-3.37-1.25-6.18-4.84-6.18a5.4,5.4,0,0,0-5.1,3.89A5.5,5.5,0,0,0,57.46,46V58.59h-3.8Z" style="fill:#fff"/><path d="M96.68,48.82c.08,5.14,3.37,7.26,7.17,7.26A13.82,13.82,0,0,0,109.64,55l.65,2.72a16.85,16.85,0,0,1-7,1.3c-6.44,0-10.28-4.24-10.28-10.55s3.71-11.28,9.81-11.28c6.83,0,8.64,6,8.64,9.86a15.12,15.12,0,0,1-.13,1.77Zm11.15-2.72c0-2.42-1-6.18-5.27-6.18-3.85,0-5.54,3.54-5.84,6.18Z" style="fill:#fff"/><rect x="117.49" y="27.9" width="3.8" height="30.69" style="fill:#fff"/><path d="M133.52,32.39v5.28H139v2.89h-5.44V51.84c0,2.6.73,4.07,2.85,4.07a8.39,8.39,0,0,0,2.2-.26l.18,2.85a9.44,9.44,0,0,1-3.38.52,5.25,5.25,0,0,1-4.1-1.6c-1.08-1.12-1.47-3-1.47-5.45V40.56h-3.24V37.67h3.24V33.38Z" style="fill:#fff"/><path d="M148.9,31.25a2.62,2.62,0,0,1-5.24,0,2.57,2.57,0,0,1,2.64-2.64,2.51,2.51,0,0,1,2.6,2.64m-4.52,6.42h3.8V58.59h-3.8Z" style="fill:#fff"/><path d="M174.9,48c0,7.74-5.36,11.11-10.41,11.11-5.67,0-10-4.15-10-10.76,0-7,4.58-11.11,10.37-11.11,6,0,10.07,4.37,10.07,10.76m-16.6.22c0,4.58,2.64,8,6.36,8S171,52.79,171,48.08c0-3.54-1.77-8-6.27-8s-6.44,4.14-6.44,8.12" style="fill:#fff"/><path d="M181,43.33c0-2.16,0-3.93-.17-5.66h3.37l.22,3.46h.09a7.67,7.67,0,0,1,6.91-3.94c2.9,0,7.39,1.73,7.39,8.91V58.59H195V46.53c0-3.37-1.26-6.18-4.84-6.18a5.4,5.4,0,0,0-5.1,3.89,5.24,5.24,0,0,0-.26,1.77V58.59H181Z" style="fill:#fff"/><path d="M83.58,32.39v5.28H89v2.89H83.58V51.84c0,2.6.73,4.07,2.85,4.07a8.39,8.39,0,0,0,2.2-.26l.17,2.85a9.33,9.33,0,0,1-3.37.52,5.25,5.25,0,0,1-4.1-1.6c-1.08-1.12-1.47-3-1.47-5.45V40.56H76.62V37.67h3.24V33.38Z" style="fill:#fff"/></g></svg>